<?xml version="1.0" standalone="no"?>
<!DOCTYPE svg PUBLIC "-//W3C//DTD SVG 1.1//EN" "http://www.w3.org/Graphics/SVG/1.1/DTD/svg11.dtd" >
<svg xmlns="http://www.w3.org/2000/svg">
<metadata>Generated by IcoMoon</metadata>
<defs>
<font id="icomoon" horiz-adv-x="1024">
<font-face units-per-em="1024" ascent="960" descent="-64" />
<missing-glyph horiz-adv-x="1024" />
<glyph unicode="&#x20;" horiz-adv-x="512" d="" />
<glyph unicode="&#xe900;" glyph-name="back_Android" d="M896 426.667h-716.8l339.2-339.2c8.533-8.533 8.533-21.333 0-29.867s-21.333-8.533-29.867 0l-375.467 375.467c-8.533 8.533-8.533 21.333 0 29.867l375.467 375.467c8.533 8.533 21.333 8.533 29.867 0s8.533-21.333 0-29.867l-337.067-339.2h714.667c12.8 0 21.333-8.533 21.333-21.333 0-10.667-10.667-21.333-21.333-21.333z" />
<glyph unicode="&#xe901;" glyph-name="back_iOS" d="M714.667 806.4l-360.533-358.4 358.4-358.4c8.533-8.533 8.533-21.333 0-29.867s-21.333-8.533-29.867 0l-373.333 373.333c-8.533 8.533-8.533 21.333 0 29.867l375.467 375.467c8.533 8.533 21.333 8.533 29.867 0s8.533-23.467 0-32z" />
<glyph unicode="&#xe902;" glyph-name="boardcast" d="M541.867 808.533c0 2.133-2.133 4.267-2.133 4.267l-2.133 2.133c-2.133 2.133-4.267 4.267-6.4 4.267h-12.8l-12.8-6.4-181.333-140.8h-142.933c-46.933 0-85.333-38.4-85.333-85.333v-277.333c0-46.933 38.4-85.333 85.333-85.333h145.067l181.333-140.8c2.133-4.267 6.4-6.4 12.8-6.4h12.8c2.133 0 4.267 2.133 6.4 4.267 0 0 2.133 0 2.133 2.133 2.133 2.133 2.133 4.267 2.133 4.267 0 2.133 2.133 4.267 2.133 6.4v708.267c-2.133 2.133-2.133 4.267-4.267 6.4zM501.333 138.667l-157.867 123.733c-4.267 2.133-8.533 4.267-12.8 4.267h-149.333c-23.467 0-42.667 19.2-42.667 42.667v277.333c0 23.467 19.2 42.667 42.667 42.667h147.2c4.267 0 8.533 2.133 12.8 4.267l157.867 123.733v-618.667zM768 770.133l-2.133-2.133c-4.267 4.267-8.533 6.4-14.933 6.4-12.8 0-21.333-8.533-21.333-21.333 0-10.667 6.4-19.2 17.067-21.333 83.2-61.867 138.667-162.133 138.667-275.2 0-117.333-59.733-219.733-149.333-281.6-4.267-4.267-8.533-10.667-8.533-17.067 0-12.8 8.533-21.333 21.333-21.333 2.133 0 6.4 0 8.533 2.133s6.4 4.267 8.533 6.4c98.133 70.4 162.133 183.467 162.133 311.467 0 130.133-64 243.2-160 313.6zM682.667 631.467h-8.533c-12.8 0-21.333-8.533-21.333-21.333 0-8.533 4.267-14.933 12.8-19.2 42.667-34.133 72.533-85.333 72.533-142.933 0-59.733-27.733-110.933-72.533-145.067-6.4-4.267-10.667-10.667-10.667-17.067 0-12.8 8.533-21.333 21.333-21.333 4.267 0 6.4 2.133 10.667 2.133 57.6 40.533 93.867 106.667 93.867 181.333-2.133 74.667-40.533 142.933-98.133 183.467z" />
<glyph unicode="&#xe903;" glyph-name="category" d="M906.667 426.667h-576c-12.8 0-21.333 8.533-21.333 21.333s8.533 21.333 21.333 21.333h576c12.8 0 21.333-8.533 21.333-21.333s-8.533-21.333-21.333-21.333zM906.667 789.333h-576c-12.8 0-21.333 8.533-21.333 21.333s8.533 21.333 21.333 21.333h576c12.8 0 21.333-8.533 21.333-21.333s-8.533-21.333-21.333-21.333zM224 64h-106.667c-12.8 0-21.333 8.533-21.333 21.333s8.533 21.333 21.333 21.333h106.667c12.8 0 21.333-8.533 21.333-21.333s-8.533-21.333-21.333-21.333zM224 426.667h-106.667c-12.8 0-21.333 8.533-21.333 21.333s8.533 21.333 21.333 21.333h106.667c12.8 0 21.333-8.533 21.333-21.333s-8.533-21.333-21.333-21.333zM224 789.333h-106.667c-12.8 0-21.333 8.533-21.333 21.333s8.533 21.333 21.333 21.333h106.667c12.8 0 21.333-8.533 21.333-21.333s-8.533-21.333-21.333-21.333zM330.667 106.667h576c12.8 0 21.333-8.533 21.333-21.333s-8.533-21.333-21.333-21.333h-576c-12.8 0-21.333 8.533-21.333 21.333s8.533 21.333 21.333 21.333z" />
<glyph unicode="&#xe904;" glyph-name="check" d="M753.067 573.867l-281.6-281.6c-8.533-8.533-21.333-8.533-29.867 0l-170.667 170.667c-8.533 8.533-8.533 21.333 0 29.867s21.333 8.533 29.867 0l155.733-155.733 266.667 266.667c8.533 8.533 21.333 8.533 29.867 0s8.533-21.333 0-29.867z" />
<glyph unicode="&#xe905;" glyph-name="check_disable" d="M512 874.667c234.667 0 426.667-192 426.667-426.667s-192-426.667-426.667-426.667-426.667 192-426.667 426.667 192 426.667 426.667 426.667z" />
<glyph unicode="&#xe906;" glyph-name="check_normal" d="M512 21.333c-234.667 0-426.667 192-426.667 426.667s192 426.667 426.667 426.667 426.667-192 426.667-426.667-192-426.667-426.667-426.667zM512 832c-211.2 0-384-172.8-384-384s172.8-384 384-384 384 172.8 384 384-172.8 384-384 384z" />
<glyph unicode="&#xe907;" glyph-name="check_other" d="M512 21.333c-234.667 0-426.667 192-426.667 426.667s192 426.667 426.667 426.667 426.667-192 426.667-426.667c0-234.667-192-426.667-426.667-426.667zM512 832c-211.2 0-384-172.8-384-384s172.8-384 384-384c211.2 0 384 172.8 384 384s-172.8 384-384 384zM704 426.667h-384c-12.8 0-21.333 8.533-21.333 21.333s8.533 21.333 21.333 21.333h384c12.8 0 21.333-8.533 21.333-21.333s-8.533-21.333-21.333-21.333z" />
<glyph unicode="&#xe908;" glyph-name="check_selected" d="M501.333 21.333c-234.667 0-426.667 192-426.667 426.667s192 426.667 426.667 426.667 426.667-192 426.667-426.667-192-426.667-426.667-426.667zM763.733 582.4c-10.667 10.667-25.6 10.667-36.267 0l-264.533-264.533-164.267 162.133c-10.667 10.667-25.6 10.667-36.267 0s-10.667-25.6 0-36.267l181.333-181.333c10.667-10.667 25.6-10.667 36.267 0l283.733 283.733c8.533 10.667 8.533 25.6 0 36.267z" />
<glyph unicode="&#xe909;" glyph-name="close" d="M556.8 448l281.6-281.6c12.8-12.8 12.8-32 0-44.8s-32-12.8-44.8 0l-281.6 281.6-281.6-281.6c-12.8-12.8-32-12.8-44.8 0s-12.8 32 0 44.8l281.6 281.6-281.6 281.6c-12.8 12.8-12.8 32 0 44.8s32 12.8 44.8 0l281.6-281.6 281.6 281.6c12.8 12.8 32 12.8 44.8 0s12.8-32 0-44.8l-281.6-281.6z" />
<glyph unicode="&#xe90a;" glyph-name="comment" d="M896 160h-268.8l-100.267-100.267c-4.267-4.267-10.667-6.4-14.933-6.4-6.4 0-10.667 2.133-14.933 6.4l-100.267 100.267h-268.8c-23.467 0-42.667 19.2-42.667 42.667v597.333c0 23.467 19.2 42.667 42.667 42.667h768c23.467 0 42.667-19.2 42.667-42.667v-597.333c0-23.467-19.2-42.667-42.667-42.667zM896 800h-768v-597.333h275.2c6.4 0 12.8-2.133 17.067-6.4l91.733-91.733 85.333 85.333v12.8h298.667v597.333zM733.867 522.667c19.2 0 34.133-14.933 34.133-32s-14.933-32-34.133-32-34.133 14.933-34.133 32 17.067 32 34.133 32zM512 458.667c-19.2 0-34.133 14.933-34.133 32s14.933 32 34.133 32c19.2 0 34.133-14.933 34.133-32s-17.067-32-34.133-32zM311.467 458.667c-19.2 0-34.133 14.933-34.133 32s14.933 32 34.133 32 34.133-14.933 34.133-32-17.067-32-34.133-32z" />
<glyph unicode="&#xe90b;" glyph-name="computer" d="M928 128h-384v-64h144c19.2 0 32-12.8 32-32s-12.8-32-32-32h-368c-19.2 0-32 12.8-32 32s12.8 32 32 32h160v64h-384c-35.2 0-64 28.8-64 64v640c0 35.2 28.8 64 64 64h832c35.2 0 64-28.8 64-64v-640c0-35.2-28.8-64-64-64zM928 832h-832v-640h832v640z" />
<glyph unicode="&#xe90c;" glyph-name="delete" d="M853.333 661.333h-44.8c2.133-6.4 2.133-14.933 2.133-21.333v-490.667c0-46.933-38.4-85.333-85.333-85.333h-426.667c-46.933 0-85.333 38.4-85.333 85.333v490.667c0 6.4 2.133 14.933 2.133 21.333h-44.8c-12.8 0-21.333 8.533-21.333 21.333s8.533 21.333 21.333 21.333h149.333v85.333c0 23.467 19.2 42.667 42.667 42.667h320c23.467 0 42.667-19.2 42.667-42.667v-85.333h128c12.8 0 21.333-8.533 21.333-21.333s-8.533-21.333-21.333-21.333zM682.667 789.333h-320v-85.333h320v85.333zM256 661.333v-512c0-23.467 19.2-42.667 42.667-42.667h426.667c23.467 0 42.667 19.2 42.667 42.667v512h-512zM661.333 234.667c-12.8 0-21.333 8.533-21.333 21.333v277.333c0 12.8 8.533 21.333 21.333 21.333s21.333-8.533 21.333-21.333v-277.333c0-12.8-8.533-21.333-21.333-21.333zM512 213.333c-12.8 0-21.333 8.533-21.333 21.333v320c0 12.8 8.533 21.333 21.333 21.333s21.333-8.533 21.333-21.333v-320c0-12.8-8.533-21.333-21.333-21.333zM362.667 234.667c-12.8 0-21.333 8.533-21.333 21.333v277.333c0 12.8 8.533 21.333 21.333 21.333s21.333-8.533 21.333-21.333v-277.333c0-12.8-8.533-21.333-21.333-21.333z" />
<glyph unicode="&#xe90d;" glyph-name="download" d="M874.667 85.333h-725.333c-12.8 0-21.333 8.533-21.333 21.333v213.333c0 12.8 8.533 21.333 21.333 21.333s21.333-8.533 21.333-21.333v-192h682.667v192c0 12.8 8.533 21.333 21.333 21.333s21.333-8.533 21.333-21.333v-213.333c0-12.8-8.533-21.333-21.333-21.333zM529.067 285.867c0 0-2.133-2.133-2.133-2.133-4.267-4.267-8.533-4.267-12.8-6.4 0 0 0 0-2.133 0 0 0-2.133 0-2.133 0-4.267 0-10.667 2.133-14.933 6.4 0 0-2.133 2.133-2.133 2.133l-230.4 232.533c-8.533 8.533-8.533 21.333 0 29.867s21.333 8.533 29.867 0l198.4-198.4v439.467c0 12.8 8.533 21.333 21.333 21.333s21.333-8.533 21.333-21.333v-439.467l198.4 200.533c8.533 8.533 21.333 8.533 29.867 0s8.533-21.333 0-29.867l-232.533-234.667z" />
<glyph unicode="&#xe90e;" glyph-name="edit" d="M887.467 770.133l-418.133-418.133c-10.667-10.667-27.733-12.8-36.267-4.267s-6.4 25.6 4.267 36.267l418.133 418.133c10.667 10.667 27.733 12.8 36.267 4.267 6.4-10.667 6.4-25.6-4.267-36.267zM582.4 770.133v0l-411.733-2.133v-640h661.333v390.4h2.133c2.133 8.533 10.667 14.933 19.2 14.933 12.8 0 21.333-8.533 21.333-21.333v-384c0-23.467-19.2-42.667-42.667-42.667h-661.333c-23.467 0-42.667 19.2-42.667 42.667v640c0 23.467 19.2 42.667 42.667 42.667h405.333c0 0 0 0 0 0 12.8 0 21.333-8.533 21.333-21.333 0-8.533-6.4-17.067-14.933-19.2z" />
<glyph unicode="&#xe90f;" glyph-name="eye-o" d="M501.333 789.333c-202.667 0-371.2-147.2-405.333-341.333h-42.667c36.267 217.6 221.867 384 448 384s411.733-166.4 448-384h-42.667c-34.133 194.133-202.667 341.333-405.333 341.333zM352 448c0 83.2 66.133 149.333 149.333 149.333s149.333-66.133 149.333-149.333-66.133-149.333-149.333-149.333c-83.2 0-149.333 66.133-149.333 149.333zM608 448c0 59.733-46.933 106.667-106.667 106.667s-106.667-46.933-106.667-106.667 46.933-106.667 106.667-106.667c59.733 0 106.667 46.933 106.667 106.667zM501.333 106.667c202.667 0 371.2 147.2 405.333 341.333h42.667c-36.267-217.6-221.867-384-448-384s-411.733 166.4-448 384h42.667c34.133-194.133 202.667-341.333 405.333-341.333z" />
<glyph unicode="&#xe910;" glyph-name="heart" d="M896 369.067l-200.533-206.933c-51.2-53.333-117.333-76.8-185.6-76.8-66.133-2.133-132.267 23.467-183.467 76.8l-198.4 206.933c-98.133 102.4-98.133 266.667 0 366.933s258.133 100.267 356.267 0l27.733-32 29.867 29.867c98.133 102.4 258.133 102.4 356.267 0 98.133-100.267 96-264.533-2.133-364.8z" />
<glyph unicode="&#xe911;" glyph-name="heart-o" d="M896 369.067l-200.533-206.933c-51.2-53.333-117.333-76.8-185.6-76.8-66.133-2.133-132.267 23.467-183.467 76.8l-198.4 206.933c-98.133 102.4-98.133 266.667 0 366.933s258.133 100.267 356.267 0l27.733-32 29.867 29.867c98.133 102.4 258.133 102.4 356.267 0 98.133-100.267 96-264.533-2.133-364.8zM868.267 706.133c-81.067 83.2-211.2 83.2-292.267 0l-64-66.133-64 66.133c-81.067 83.2-211.2 83.2-292.267 0s-81.067-217.6 0-300.8l206.933-213.333c40.533-42.667 96-64 149.333-61.867 53.333 0 108.8 19.2 149.333 61.867l206.933 213.333c78.933 81.067 78.933 217.6 0 300.8z" />
<glyph unicode="&#xe912;" glyph-name="home-o" d="M985.6 375.467c-8.533-8.533-21.333-8.533-29.867 0l-91.733 91.733v-418.133c0-12.8-8.533-21.333-21.333-21.333h-661.333c-12.8 0-21.333 8.533-21.333 21.333v418.133l-91.733-91.733c-8.533-8.533-21.333-8.533-29.867 0s-8.533 21.333 0 29.867l454.4 454.4c2.133 2.133 4.267 4.267 8.533 4.267 8.533 6.4 19.2 4.267 25.6-2.133l458.667-456.533c8.533-8.533 8.533-21.333 0-29.867zM437.333 70.4h149.333v234.667h-2.133c-4.267 36.267-36.267 64-72.533 64-38.4 0-68.267-27.733-72.533-64h-2.133v-234.667zM202.667 70.4h192v234.667h2.133c6.4 59.733 55.467 106.667 115.2 106.667s110.933-46.933 115.2-106.667h2.133v-234.667h192v439.467l-309.333 309.333-309.333-309.333v-439.467z" />
<glyph unicode="&#xe913;" glyph-name="infomation-circle" d="M512 32c-230.4 0-416 185.6-416 416s185.6 416 416 416 416-185.6 416-416-185.6-416-416-416zM544 672c0 19.2-12.8 32-32 32s-32-12.8-32-32v-288c0-19.2 12.8-32 32-32s32 12.8 32 32v288zM512 288c-19.2 0-32-12.8-32-32s12.8-32 32-32c19.2 0 32 12.8 32 32s-12.8 32-32 32z" />
<glyph unicode="&#xe914;" glyph-name="infomation-o" d="M512 21.333c-234.667 0-426.667 192-426.667 426.667s192 426.667 426.667 426.667 426.667-192 426.667-426.667c0-234.667-192-426.667-426.667-426.667zM512 832c-211.2 0-384-172.8-384-384s172.8-384 384-384c211.2 0 384 172.8 384 384s-172.8 384-384 384zM512 256c-12.8 0-21.333 8.533-21.333 21.333v234.667c0 12.8 8.533 21.333 21.333 21.333s21.333-8.533 21.333-21.333v-234.667c0-10.667-8.533-21.333-21.333-21.333zM512 576c-12.8 0-21.333 8.533-21.333 21.333s8.533 21.333 21.333 21.333 21.333-8.533 21.333-21.333-8.533-21.333-21.333-21.333z" />
<glyph unicode="&#xe915;" glyph-name="like" d="M864 514.133c0 0 0-2.133 0-2.133s0-2.133 0-2.133 0-2.133 0-4.267c0 0 0-2.133 0-2.133l-74.667-398.933c-2.133-4.267-4.267-8.533-6.4-10.667 0 0 0 0 0 0-2.133-2.133-4.267-2.133-6.4-4.267-2.133 0-2.133-2.133-4.267-2.133s-2.133 0-4.267 0c0 0-2.133 0-2.133 0h-556.8c-27.733 0-49.067 21.333-49.067 49.067v373.333c0 27.733 21.333 46.933 49.067 46.933h102.4v-2.133c91.733 6.4 164.267 78.933 168.533 170.667h2.133c0 4.267-2.133 6.4-2.133 10.667 0 40.533 34.133 74.667 74.667 74.667s74.667-34.133 74.667-74.667c0-4.267 0-6.4-2.133-10.667h2.133c0 0 0 0 0 0 0-70.4-21.333-136.533-57.6-189.867h268.8c2.133 0 4.267 0 4.267 0s0 0 0 0 0 0 0 0c2.133 0 6.4-2.133 8.533-4.267 0 0 0 0 0 0 2.133-2.133 4.267-4.267 6.4-6.4 0 0 0 0 0-2.133 2.133-2.133 4.267-4.267 4.267-8.533zM266.667 509.867h-61.867v-381.867h61.867v381.867zM518.4 535.467v0c44.8 51.2 70.4 117.333 70.4 189.867h-2.133c2.133 4.267 2.133 6.4 2.133 10.667-2.133 17.067-14.933 32-34.133 32s-32-14.933-32-32c0-4.267 0-6.4 2.133-10.667h-2.133c-4.267-115.2-96-206.933-211.2-213.333v-384h433.067l66.133 362.667h-292.267c-12.8 0-25.6 4.267-25.6 19.2 0 12.8 10.667 25.6 25.6 25.6z" />
<glyph unicode="&#xe916;" glyph-name="location" d="M725.333 245.333v0c-2.133-2.133-4.267-4.267-6.4-4.267l-192-192c-2.133-4.267-8.533-6.4-14.933-6.4s-10.667 2.133-14.933 6.4l-192 192c-2.133 2.133-2.133 4.267-4.267 6.4l-2.133-2.133c-78.933 61.867-128 157.867-128 266.667 0 187.733 153.6 341.333 341.333 341.333s341.333-153.6 341.333-341.333c0-108.8-51.2-204.8-128-266.667zM512 810.667c-164.267 0-298.667-134.4-298.667-298.667 0-98.133 49.067-185.6 121.6-238.933 0 0 0 0 2.133 0v0c2.133-2.133 2.133-2.133 4.267-4.267v0l170.667-170.667 174.933 174.933c74.667 51.2 123.733 138.667 123.733 238.933 0 164.267-134.4 298.667-298.667 298.667zM512 384c-70.4 0-128 57.6-128 128s57.6 128 128 128 128-57.6 128-128-57.6-128-128-128zM512 597.333c-46.933 0-85.333-38.4-85.333-85.333s38.4-85.333 85.333-85.333 85.333 38.4 85.333 85.333-38.4 85.333-85.333 85.333z" />
<glyph unicode="&#xe917;" glyph-name="lock" d="M768 64h-512c-23.467 0-42.667 19.2-42.667 42.667v426.667c0 23.467 19.2 42.667 42.667 42.667h64v64c0 106.667 85.333 192 192 192s192-85.333 192-192v-64h64c23.467 0 42.667-19.2 42.667-42.667v-426.667c0-23.467-19.2-42.667-42.667-42.667zM661.333 640c0 83.2-66.133 149.333-149.333 149.333s-149.333-66.133-149.333-149.333v-64h298.667v64zM768 533.333h-512v-426.667h512v426.667zM512 405.333c23.467 0 42.667-19.2 42.667-42.667 0-14.933-8.533-29.867-21.333-36.267v-49.067c0-12.8-8.533-21.333-21.333-21.333s-21.333 8.533-21.333 21.333v49.067c-12.8 6.4-21.333 21.333-21.333 36.267 0 23.467 19.2 42.667 42.667 42.667z" />
<glyph unicode="&#xe918;" glyph-name="menu_down" d="M902.4 585.6l-352-352c-6.4-6.4-12.8-9.6-22.4-9.6s-16 3.2-22.4 9.6l-352 352c-12.8 12.8-12.8 32 0 44.8s32 12.8 44.8 0l329.6-329.6 329.6 329.6c12.8 12.8 32 12.8 44.8 0s12.8-32 0-44.8z" />
<glyph unicode="&#xe919;" glyph-name="menu_up" d="M902.4 233.6c-12.8-12.8-32-12.8-44.8 0l-329.6 329.6-329.6-329.6c-12.8-12.8-32-12.8-44.8 0s-12.8 32 0 44.8l352 352c6.4 6.4 16 9.6 22.4 9.6 9.6 0 16-3.2 22.4-9.6l352-352c12.8-12.8 12.8-32 0-44.8z" />
<glyph unicode="&#xe91a;" glyph-name="more_Android" d="M512 85.333c23.467 0 42.667-19.2 42.667-42.667s-19.2-42.667-42.667-42.667-42.667 19.2-42.667 42.667 19.2 42.667 42.667 42.667zM512 490.667c23.467 0 42.667-19.2 42.667-42.667s-19.2-42.667-42.667-42.667-42.667 19.2-42.667 42.667 19.2 42.667 42.667 42.667zM512 896c23.467 0 42.667-19.2 42.667-42.667s-19.2-42.667-42.667-42.667-42.667 19.2-42.667 42.667 19.2 42.667 42.667 42.667z" />
<glyph unicode="&#xe91b;" glyph-name="more_iOS" d="M106.667 490.667c23.467 0 42.667-19.2 42.667-42.667s-19.2-42.667-42.667-42.667-42.667 19.2-42.667 42.667 19.2 42.667 42.667 42.667zM512 490.667c23.467 0 42.667-19.2 42.667-42.667s-19.2-42.667-42.667-42.667-42.667 19.2-42.667 42.667 19.2 42.667 42.667 42.667zM917.333 490.667c23.467 0 42.667-19.2 42.667-42.667s-19.2-42.667-42.667-42.667-42.667 19.2-42.667 42.667 19.2 42.667 42.667 42.667z" />
<glyph unicode="&#xe91c;" glyph-name="numpicker_minus" d="M810.667 405.333h-597.333c-25.6 0-42.667 21.333-42.667 42.667v0c0 25.6 21.333 42.667 42.667 42.667h597.333c25.6 0 42.667-21.333 42.667-42.667v0c0-21.333-21.333-42.667-42.667-42.667z" />
<glyph unicode="&#xe91d;" glyph-name="numpicker_plus" d="M810.667 405.333h-256v-256c0-25.6-17.067-42.667-42.667-42.667s-42.667 17.067-42.667 42.667v256h-256c-25.6 0-42.667 17.067-42.667 42.667s17.067 42.667 42.667 42.667h256v256c0 25.6 17.067 42.667 42.667 42.667s42.667-17.067 42.667-42.667v-256h256c25.6 0 42.667-17.067 42.667-42.667s-17.067-42.667-42.667-42.667z" />
<glyph unicode="&#xe91e;" glyph-name="offer_image" d="M842.667 74.667h-256c-23.467 0-42.667 19.2-42.667 42.667v256c0 23.467 19.2 42.667 42.667 42.667h256c23.467 0 42.667-19.2 42.667-42.667v-256c0-23.467-19.2-42.667-42.667-42.667zM842.667 373.333h-256v-256h256v256zM842.667 480h-256c-23.467 0-42.667 19.2-42.667 42.667v256c0 23.467 19.2 42.667 42.667 42.667h256c23.467 0 42.667-19.2 42.667-42.667v-256c0-23.467-19.2-42.667-42.667-42.667zM842.667 778.667h-256v-256h256v256zM437.333 74.667h-256c-23.467 0-42.667 19.2-42.667 42.667v256c0 23.467 19.2 42.667 42.667 42.667h256c23.467 0 42.667-19.2 42.667-42.667v-256c0-23.467-19.2-42.667-42.667-42.667zM437.333 373.333h-256v-256h256v256zM437.333 480h-256c-23.467 0-42.667 19.2-42.667 42.667v256c0 23.467 19.2 42.667 42.667 42.667h256c23.467 0 42.667-19.2 42.667-42.667v-256c0-23.467-19.2-42.667-42.667-42.667zM437.333 778.667h-256v-256h256v256z" />
<glyph unicode="&#xe91f;" glyph-name="offer_list" d="M864 330.667h-320c-12.8 0-21.333 8.533-21.333 21.333s8.533 21.333 21.333 21.333h320c12.8 0 21.333-8.533 21.333-21.333s-8.533-21.333-21.333-21.333zM864 522.667h-320c-12.8 0-21.333 8.533-21.333 21.333s8.533 21.333 21.333 21.333h320c12.8 0 21.333-8.533 21.333-21.333s-8.533-21.333-21.333-21.333zM864 757.333h-320c-12.8 0-21.333 8.533-21.333 21.333s8.533 21.333 21.333 21.333h320c12.8 0 21.333-8.533 21.333-21.333s-8.533-21.333-21.333-21.333zM416 74.667h-234.667c-23.467 0-42.667 19.2-42.667 42.667v234.667c0 23.467 19.2 42.667 42.667 42.667h234.667c23.467 0 42.667-19.2 42.667-42.667v-234.667c0-23.467-19.2-42.667-42.667-42.667zM416 352h-234.667v-234.667h234.667v234.667zM416 501.333h-234.667c-23.467 0-42.667 19.2-42.667 42.667v234.667c0 23.467 19.2 42.667 42.667 42.667h234.667c23.467 0 42.667-19.2 42.667-42.667v-234.667c0-23.467-19.2-42.667-42.667-42.667zM416 778.667h-234.667v-234.667h234.667v234.667zM544 138.667h320c12.8 0 21.333-8.533 21.333-21.333s-8.533-21.333-21.333-21.333h-320c-12.8 0-21.333 8.533-21.333 21.333s8.533 21.333 21.333 21.333z" />
<glyph unicode="&#xe920;" glyph-name="order_list-o" d="M832 32h-640c-23.467 0-42.667 19.2-42.667 42.667v640c0 23.467 19.2 42.667 42.667 42.667h64c12.8 0 21.333-8.533 21.333-21.333s-8.533-21.333-21.333-21.333h-64v-640h640v640h-64c-12.8 0-21.333 8.533-21.333 21.333s8.533 21.333 21.333 21.333h64c23.467 0 42.667-19.2 42.667-42.667v-640c0-23.467-19.2-42.667-42.667-42.667zM704 202.667h-384c-12.8 0-21.333 8.533-21.333 21.333s8.533 21.333 21.333 21.333h384c12.8 0 21.333-8.533 21.333-21.333s-8.533-21.333-21.333-21.333zM704 373.333h-384c-12.8 0-21.333 8.533-21.333 21.333s8.533 21.333 21.333 21.333h384c12.8 0 21.333-8.533 21.333-21.333s-8.533-21.333-21.333-21.333zM704 544h-384c-12.8 0-21.333 8.533-21.333 21.333s8.533 21.333 21.333 21.333h384c12.8 0 21.333-8.533 21.333-21.333s-8.533-21.333-21.333-21.333zM661.333 714.667h-298.667c-12.8 0-21.333 8.533-21.333 21.333s8.533 21.333 21.333 21.333h298.667c12.8 0 21.333-8.533 21.333-21.333s-8.533-21.333-21.333-21.333zM512 821.333c-36.267 0-64-27.733-64-64h-42.667c0 59.733 46.933 106.667 106.667 106.667s106.667-46.933 106.667-106.667h-42.667c0 36.267-27.733 64-64 64z" />
<glyph unicode="&#xe921;" glyph-name="phone" d="M181.333 672c0 83.2 66.133 149.333 149.333 149.333s149.333-66.133 149.333-149.333c0-55.467-29.867-102.4-74.667-128 25.6-108.8 102.4-198.4 202.667-245.333 25.6 44.8 72.533 74.667 128 74.667 83.2 0 149.333-66.133 149.333-149.333s-66.133-149.333-149.333-149.333c-4.267 0-10.667 0-14.933 2.133v0c-300.8 12.8-539.733 260.267-539.733 563.2zM736 330.667c-51.2 0-96-38.4-104.533-87.467-14.933 4.267-27.733 8.533-40.533 14.933 0 0 0 0 0 2.133-96 42.667-170.667 121.6-209.067 219.733-2.133 4.267-4.267 10.667-6.4 14.933s-2.133 6.4-4.267 10.667c-6.4 21.333-10.667 42.667-14.933 64 46.933 10.667 81.067 53.333 81.067 102.4 0 59.733-46.933 106.667-106.667 106.667s-106.667-46.933-106.667-106.667c0 0 0-2.133 0-2.133 0-42.667 2.133-76.8 6.4-108.8 0 0 0 0-2.133 0 32-209.067 185.6-375.467 386.133-426.667 0 0 0 2.133-2.133 2.133 25.6-6.4 57.6-12.8 98.133-17.067 6.4-2.133 10.667-2.133 17.067-2.133 2.133 0 2.133 0 4.267 0 0 0 0 0 0 0s0 0 0 0c59.733 0 106.667 46.933 106.667 106.667 4.267 59.733-42.667 106.667-102.4 106.667z" />
<glyph unicode="&#xe922;" glyph-name="profile" d="M512-21.333c-260.267 0-469.333 209.067-469.333 469.333s209.067 469.333 469.333 469.333 469.333-209.067 469.333-469.333c0-260.267-209.067-469.333-469.333-469.333zM721.067 245.333c-10.667 72.533-57.6 132.267-123.733 162.133 49.067 29.867 83.2 83.2 83.2 147.2 0 93.867-76.8 170.667-170.667 170.667s-170.667-76.8-170.667-170.667c0-61.867 34.133-117.333 83.2-147.2-66.133-29.867-113.067-89.6-123.733-162.133 2.133-4.267 0-6.4 0-10.667 0-12.8 8.533-21.333 21.333-21.333 10.667 0 21.333 10.667 21.333 21.333h2.133c10.667 83.2 81.067 149.333 168.533 149.333s157.867-66.133 168.533-149.333h2.133c0-12.8 8.533-21.333 21.333-21.333s21.333 10.667 21.333 21.333c0 4.267-2.133 8.533-4.267 10.667zM384 554.667c0 70.4 57.6 128 128 128s128-57.6 128-128c0-70.4-57.6-128-128-128s-128 57.6-128 128z" />
<glyph unicode="&#xe923;" glyph-name="profile-o" d="M512 21.333c-234.667 0-426.667 192-426.667 426.667s192 426.667 426.667 426.667 426.667-192 426.667-426.667c0-234.667-192-426.667-426.667-426.667zM512 832c-211.2 0-384-172.8-384-384s172.8-384 384-384c211.2 0 384 172.8 384 384s-172.8 384-384 384zM704 213.333c-12.8 0-21.333 10.667-21.333 21.333h-2.133c-10.667 83.2-81.067 149.333-168.533 149.333s-157.867-66.133-168.533-149.333h-2.133c0-12.8-8.533-21.333-21.333-21.333-10.667 0-21.333 10.667-21.333 21.333 0 4.267 2.133 6.4 2.133 10.667 10.667 72.533 57.6 134.4 123.733 162.133-49.067 29.867-83.2 85.333-83.2 147.2 0 93.867 76.8 170.667 170.667 170.667s170.667-76.8 170.667-170.667c0-61.867-34.133-117.333-83.2-147.2 64-29.867 110.933-89.6 123.733-162.133 2.133-4.267 4.267-6.4 4.267-10.667-2.133-12.8-10.667-21.333-23.467-21.333zM640 554.667c0 70.4-57.6 128-128 128s-128-57.6-128-128c0-70.4 57.6-128 128-128s128 57.6 128 128z" />
<glyph unicode="&#xe924;" glyph-name="refresh" d="M985.6 516.267l-89.6-98.133c-2.133-4.267-6.4-6.4-10.667-6.4-6.4-6.4-17.067-6.4-25.6 0l-119.467 89.6c-8.533 6.4-10.667 21.333-4.267 29.867s21.333 10.667 29.867 4.267l78.933-57.6c-14.933 196.267-181.333 354.133-384 354.133-211.2 0-384-172.8-384-384s172.8-384 384-384c98.133 0 187.733 38.4 256 98.133l4.267-2.133c4.267 6.4 10.667 10.667 17.067 10.667 12.8 0 21.333-8.533 21.333-21.333 0-10.667-6.4-19.2-17.067-21.333-74.667-66.133-172.8-106.667-281.6-106.667-234.667 0-426.667 192-426.667 426.667s192 426.667 426.667 426.667c228.267 0 413.867-179.2 424.533-403.2l66.133 72.533c6.4 8.533 21.333 10.667 29.867 4.267s10.667-21.333 4.267-32z" />
<glyph unicode="&#xe925;" glyph-name="right" d="M726.4 425.6l-384-384c-12.8-12.8-32-12.8-44.8 0s-12.8 32 0 44.8l361.6 361.6-361.6 361.6c-12.8 12.8-12.8 32 0 44.8s32 12.8 44.8 0l384-384c6.4-6.4 9.6-16 9.6-22.4 0-9.6-3.2-16-9.6-22.4z" />
<glyph unicode="&#xe926;" glyph-name="search" d="M900.267 59.733c-8.533-8.533-21.333-8.533-29.867 0l-130.133 132.267c-66.133-59.733-153.6-96-249.6-96-206.933 0-373.333 166.4-373.333 373.333s166.4 371.2 373.333 371.2 373.333-166.4 373.333-373.333c0-93.867-36.267-181.333-93.867-245.333l130.133-130.133c8.533-8.533 8.533-23.467 0-32zM490.667 797.867c-183.467 0-330.667-147.2-330.667-330.667s147.2-330.667 330.667-330.667 330.667 147.2 330.667 330.667-149.333 330.667-330.667 330.667z" />
<glyph unicode="&#xe927;" glyph-name="setting" d="M887.467 341.333h-51.2c-6.4-17.067-12.8-32-19.2-46.933l36.267-36.267c21.333-21.333 19.2-53.333 0-74.667l-74.667-74.667c-21.333-21.333-53.333-21.333-74.667 0l-36.267 36.267c-14.933-8.533-29.867-14.933-46.933-19.2v-51.2c0-29.867-23.467-51.2-53.333-51.2h-106.667c-29.867 0-53.333 23.467-53.333 51.2v51.2c-17.067 6.4-32 12.8-46.933 19.2l-36.267-36.267c-21.333-21.333-53.333-19.2-74.667 0l-74.667 74.667c-21.333 21.333-21.333 53.333 0 74.667l36.267 36.267c-8.533 14.933-12.8 29.867-19.2 46.933h-55.467c-27.733 0-51.2 23.467-51.2 53.333v106.667c0 29.867 23.467 53.333 51.2 53.333h51.2c6.4 17.067 12.8 32 19.2 46.933l-36.267 36.267c-21.333 21.333-19.2 53.333 0 74.667l74.667 74.667c21.333 21.333 53.333 21.333 74.667 0l36.267-36.267c14.933 8.533 29.867 14.933 46.933 19.2v53.333c2.133 27.733 25.6 51.2 55.467 51.2h106.667c29.867 0 53.333-23.467 53.333-51.2v-51.2c17.067-6.4 32-12.8 46.933-19.2l36.267 36.267c21.333 21.333 53.333 19.2 74.667 0l74.667-74.667c21.333-21.333 21.333-53.333 0-74.667l-36.267-36.267c8.533-14.933 12.8-29.867 19.2-46.933h51.2c29.867 0 51.2-23.467 51.2-53.333v-106.667c2.133-32-21.333-55.467-49.067-55.467zM896 512h-91.733c-4.267 19.2-10.667 38.4-19.2 57.6 0 0 0 0 0 0v0c-6.4 12.8-12.8 27.733-21.333 38.4l66.133 66.133-89.6 89.6-66.133-66.133c-29.867 19.2-61.867 32-96 40.533v0 93.867h-128v-91.733c-34.133-8.533-68.267-21.333-96-40.533l-66.133 66.133-89.6-89.6 66.133-66.133c-10.667-17.067-19.2-34.133-27.733-53.333 0 0 0 0 0-2.133v0c-4.267-12.8-10.667-27.733-12.8-42.667h-96v-128h91.733c8.533-34.133 21.333-68.267 40.533-96l-66.133-66.133 89.6-89.6 66.133 66.133c17.067-10.667 36.267-19.2 53.333-27.733v0c12.8-4.267 27.733-10.667 42.667-12.8v-93.867h128v91.733c14.933 4.267 29.867 8.533 42.667 12.8v0c19.2 6.4 38.4 17.067 53.333 27.733l66.133-66.133 89.6 89.6-66.133 66.133c10.667 17.067 19.2 34.133 27.733 53.333 0 0 0 0 0 2.133v0c4.267 12.8 10.667 27.733 12.8 42.667h96v128zM512 320c-70.4 0-128 57.6-128 128s57.6 128 128 128 128-57.6 128-128c0-70.4-57.6-128-128-128zM512 533.333c-46.933 0-85.333-38.4-85.333-85.333s38.4-85.333 85.333-85.333c46.933 0 85.333 38.4 85.333 85.333s-38.4 85.333-85.333 85.333z" />
<glyph unicode="&#xe928;" glyph-name="shopping-bag" d="M789.333 0h-554.667c-46.933 0-85.333 38.4-85.333 85.333v533.333c0 23.467 19.2 42.667 42.667 42.667h106.667v42.667h2.133c10.667 108.8 102.4 192 211.2 192s200.533-83.2 211.2-192h2.133v-42.667h106.667c23.467 0 42.667-19.2 42.667-42.667v-533.333c0-46.933-38.4-85.333-85.333-85.333zM682.667 682.667c0 93.867-76.8 170.667-170.667 170.667s-170.667-76.8-170.667-170.667v-21.333h341.333v21.333zM832 320v298.667h-106.667v-106.667c0-12.8-8.533-21.333-21.333-21.333s-21.333 8.533-21.333 21.333v106.667h-341.333v-106.667c0-12.8-8.533-21.333-21.333-21.333s-21.333 8.533-21.333 21.333v106.667h-106.667v-533.333c0-23.467 19.2-42.667 42.667-42.667h554.667c23.467 0 42.667 19.2 42.667 42.667v234.667z" />
<glyph unicode="&#xe929;" glyph-name="star" d="M925.867 501.333c-61.867-66.133-164.267-174.933-164.267-174.933s19.2-155.733 29.867-243.2c4.267-34.133-49.067-34.133-49.067-34.133l-2.133 2.133c-81.067 38.4-217.6 102.4-217.6 102.4s-140.8-66.133-221.867-104.533c-32-14.933-51.2 2.133-46.933 38.4 10.667 89.6 29.867 238.933 29.867 238.933s-87.467 93.867-149.333 160c-34.133 36.267-32 68.267 4.267 74.667 87.467 17.067 236.8 44.8 236.8 44.8s81.067 147.2 123.733 224c12.8 27.733 32 27.733 46.933 2.133 40.533-74.667 123.733-226.133 123.733-226.133s162.133-29.867 249.6-46.933c29.867-6.4 32-29.867 6.4-57.6z" />
<glyph unicode="&#xe92a;" glyph-name="star-o" d="M910.933 501.333c-61.867-66.133-164.267-174.933-164.267-174.933s19.2-155.733 29.867-243.2c4.267-34.133-49.067-34.133-49.067-34.133l-2.133 2.133c-81.067 38.4-217.6 102.4-217.6 102.4s-140.8-66.133-221.867-104.533c-32-14.933-51.2 2.133-46.933 38.4 10.667 89.6 29.867 238.933 29.867 238.933s-87.467 93.867-149.333 160c-34.133 36.267-32 68.267 4.267 76.8 87.467 17.067 236.8 44.8 236.8 44.8s81.067 149.333 123.733 224c14.933 25.6 34.133 27.733 46.933 2.133 40.533-74.667 123.733-226.133 123.733-226.133s162.133-32 247.467-46.933c32-6.4 34.133-29.867 8.533-59.733zM631.467 558.933l-123.733 224-119.467-219.733-243.2-42.667 172.8-181.333-34.133-245.333 224 108.8 224-102.4-36.267 241.067 177.067 179.2-241.067 38.4z" />
<glyph unicode="&#xe92b;" glyph-name="success" d="M512 21.333c-234.667 0-426.667 192-426.667 426.667s192 426.667 426.667 426.667 426.667-192 426.667-426.667c0-234.667-192-426.667-426.667-426.667zM512 832c-211.2 0-384-172.8-384-384s172.8-384 384-384c211.2 0 384 172.8 384 384s-172.8 384-384 384zM471.467 281.6c-8.533-8.533-21.333-8.533-29.867 0l-151.467 151.467c-8.533 8.533-8.533 21.333 0 29.867s21.333 8.533 29.867 0l136.533-136.533 226.133 228.267c8.533 8.533 21.333 8.533 29.867 0s8.533-21.333 0-29.867l-241.067-243.2z" />
<glyph unicode="&#xe92c;" glyph-name="success-circle" d="M512 21.333c-234.667 0-426.667 192-426.667 426.667s192 426.667 426.667 426.667 426.667-192 426.667-426.667-192-426.667-426.667-426.667zM714.667 558.933c-8.533 8.533-21.333 8.533-29.867 0l-232.533-232.533-136.533 136.533c-8.533 8.533-21.333 8.533-29.867 0s-8.533-21.333 0-29.867l151.467-151.467c8.533-8.533 21.333-8.533 29.867 0l247.467 247.467c8.533 8.533 8.533 23.467 0 29.867z" />
<glyph unicode="&#xe92d;" glyph-name="time" d="M512 21.333c-234.667 0-426.667 192-426.667 426.667s192 426.667 426.667 426.667 426.667-192 426.667-426.667c0-234.667-192-426.667-426.667-426.667zM512 832c-211.2 0-384-172.8-384-384s172.8-384 384-384c211.2 0 384 172.8 384 384s-172.8 384-384 384zM661.333 281.6c-10.667-6.4-23.467-2.133-29.867 8.533l-138.667 160c-2.133 6.4-4.267 10.667-2.133 17.067 0 0 0 0 0 2.133v234.667c0 12.8 8.533 21.333 21.333 21.333s21.333-8.533 21.333-21.333v-234.667c0 0 0 0 0-2.133l134.4-155.733c6.4-10.667 2.133-23.467-6.4-29.867z" />
<glyph unicode="&#xe92e;" glyph-name="unlock" d="M757.333 64h-512c-23.467 0-42.667 19.2-42.667 42.667v426.667c0 23.467 19.2 42.667 42.667 42.667h64v64c0 106.667 85.333 192 192 192 96 0 174.933-70.4 189.867-160 2.133-2.133 2.133-6.4 2.133-10.667 0-12.8-8.533-21.333-21.333-21.333s-21.333 8.533-21.333 21.333h-2.133c-10.667 72.533-72.533 128-147.2 128-83.2 0-149.333-66.133-149.333-149.333v-64h405.333c23.467 0 42.667-19.2 42.667-42.667v-426.667c0-23.467-19.2-42.667-42.667-42.667zM757.333 533.333h-512v-426.667h512v426.667zM501.333 384c12.8 0 21.333-8.533 21.333-21.333v-85.333c0-12.8-8.533-21.333-21.333-21.333s-21.333 8.533-21.333 21.333v85.333c0 12.8 8.533 21.333 21.333 21.333z" />
<glyph unicode="&#xe92f;" glyph-name="warning-circle" d="M512 32c-230.4 0-416 185.6-416 416s185.6 416 416 416 416-185.6 416-416-185.6-416-416-416zM544 507.733c0 19.2-12.8 32-32 32s-32-12.8-32-32v-288c0-19.2 12.8-32 32-32s32 12.8 32 32v288zM514.133 657.067c-19.2 0-32-12.8-32-32s12.8-32 32-32 32 12.8 32 32-12.8 32-32 32z" />
</font>
</defs>
</svg>
